<svg xmlns="http://www.w3.org/2000/svg" width="499.776" height="222.139" viewBox="0 0 499.776 222.139"><g transform="translate(0 0)"><path d="M257.769,224.233H360.136V370.906H257.769Zm14.753,131.9h72.806V239H272.522Z" transform="translate(-257.769 -224.233)" fill="#ffcd05"/><path d="M365.9,283.084h-6.345c-8.313-11.74-16.558-23.41-24.8-36.611h-.07v36.611h-7v-51.05h6.345c8.315,11.666,16.556,23.263,24.726,36.388h.146V232.034h7v51.05" transform="translate(-195.531 -217.289)" fill="#fff"/><path d="M363.434,262.884c2.04-6.71,4.081-12.91,5.907-20.792h.145c2.041,7.882,3.866,14.082,5.761,20.792H363.434m3.353-30.85-17.651,51.05h7.587l4.448-13.931H376.56l4.011,13.931h9.776l-16.265-51.05Z" transform="translate(-176.434 -217.289)" fill="#fff"/><path d="M381.618,283.084v-44.2H368.2v-6.848h35.593v6.848H390.368v44.2h-8.75" transform="translate(-159.466 -217.288)" fill="#fff"/><rect width="8.677" height="51.05" transform="translate(247.169 14.746)" fill="#fff"/><path d="M417.6,277.083c-9.118,0-12.326-10.069-12.326-19.838,0-9.409,3.648-18.384,12.326-18.384s12.324,8.975,12.324,18.384c0,9.768-3.208,19.838-12.324,19.838m0,7.289c13.348,0,21.662-11.884,21.662-27.126,0-14.3-9.192-25.676-21.662-25.676s-21.661,11.375-21.661,25.676C395.942,272.488,404.253,284.371,417.6,284.371Z" transform="translate(-134.769 -217.702)" fill="#fff"/><path d="M459.9,283.084h-6.347c-8.311-11.74-16.558-23.41-24.8-36.611h-.078v36.611h-7v-51.05h6.347c8.313,11.666,16.556,23.263,24.724,36.388h.147V232.034h7v51.05" transform="translate(-111.859 -217.289)" fill="#fff"/><path d="M457.426,262.884c2.045-6.71,4.086-12.91,5.912-20.792h.142c2.045,7.882,3.869,14.082,5.763,20.792H457.426m3.355-30.85-17.652,51.05h7.589l4.451-13.931h15.386l4.013,13.931h9.772l-16.265-51.05Z" transform="translate(-92.763 -217.289)" fill="#fff"/><path d="M466.283,232.034h8.679v44.2h17.285v6.855H466.283v-51.05" transform="translate(-72.152 -217.288)" fill="#fff"/><path d="M363.431,295.1v21.077a40.149,40.149,0,0,1-14.515,3.136c-15.025,0-24.506-11.663-24.506-26.7,0-13.927,9.481-26.107,24.8-26.107a21.818,21.818,0,0,1,12.4,3.939l-2.845,6.054a18.969,18.969,0,0,0-9.334-2.7c-9.338,0-15.685,7.366-15.685,18.959,0,12.109,7.3,19.259,14.808,19.259a12.9,12.9,0,0,0,6.128-1.236V295.1h8.752" transform="translate(-198.446 -186.596)" fill="#fff"/><path d="M372.6,273.838H358.01v14h14.3v6.854h-14.3v16.483h17.215v6.861H349.259v-51.06H372.6v6.862" transform="translate(-176.325 -186.184)" fill="#fff"/><path d="M386.085,312.027c-9.117,0-12.326-10.062-12.326-19.84,0-9.405,3.648-18.378,12.326-18.378s12.326,8.973,12.326,18.378c0,9.778-3.207,19.84-12.326,19.84m0,7.289c13.348,0,21.661-11.887,21.661-27.128,0-14.3-9.19-25.674-21.661-25.674s-21.662,11.379-21.662,25.674C364.423,307.428,372.738,319.316,386.085,319.316Z" transform="translate(-162.827 -186.596)" fill="#fff"/><path d="M427.944,295.1v21.077a40.131,40.131,0,0,1-14.513,3.136c-15.023,0-24.506-11.663-24.506-26.7,0-13.927,9.483-26.107,24.8-26.107a21.806,21.806,0,0,1,12.394,3.939l-2.843,6.054a18.953,18.953,0,0,0-9.336-2.7c-9.336,0-15.681,7.366-15.681,18.959,0,12.109,7.3,19.259,14.808,19.259a12.9,12.9,0,0,0,6.128-1.236V295.1h8.748" transform="translate(-141.015 -186.596)" fill="#fff"/><path d="M422.566,273.838h3.867c5.179,0,8.092,2.988,8.092,8.238,0,6.854-4.153,9.918-8.315,10.133-.873.077-2.913.147-3.644.225v-18.6m22.168,44.2-10.279-21.153a17.165,17.165,0,0,0,8.825-15.167c0-9.925-6.054-14.74-15.827-14.74H413.812v51.06h8.754V298.779H426.5l8.243,19.255Z" transform="translate(-118.861 -186.184)" fill="#fff"/><path d="M444.544,297.829c2.041-6.708,4.085-12.908,5.907-20.781h.146c2.043,7.872,3.867,14.072,5.765,20.781H444.544m3.355-30.854-17.648,51.06h7.585l4.448-13.931h15.39l4.013,13.931h9.772l-16.265-51.06Z" transform="translate(-104.227 -186.184)" fill="#fff"/><path d="M467.154,266.975H453.518v51.06h8.752V298.779h3.939c10.432,0,16.775-8.464,16.775-17.065,0-9.925-6.058-14.74-15.83-14.74m-1.236,25.234c-.9.07-3.037.14-3.648.211V273.838h3.939c5.105,0,8.02,2.988,8.02,8.238C474.229,288.929,470.07,291.994,465.917,292.209Z" transform="translate(-83.515 -186.184)" fill="#fff"/><path d="M507.325,318.035h-8.756V293.452H480.407v24.583h-8.679v-51.06h8.679V286.6h18.162V267.122h8.756v50.913" transform="translate(-67.304 -186.184)" fill="#fff"/><rect width="8.68" height="51.06" transform="translate(448.406 80.791)" fill="#fff"/><path d="M536.259,276.65a18.389,18.389,0,0,0-8.973-2.841c-8.9,0-15.388,7.366-15.388,18.959,0,12.109,7.149,19.259,15.607,19.259a16.516,16.516,0,0,0,8.753-2.556l2.41,6.349a22.236,22.236,0,0,1-11.526,3.5c-15.027,0-24.506-11.663-24.506-26.7,0-13.927,9.409-26.107,24.65-26.107a21.551,21.551,0,0,1,11.746,3.939l-2.774,6.2" transform="translate(-39.79 -186.596)" fill="#fff"/></g><g transform="translate(0.323 192.319)"><path d="M265.7,355.316a73.307,73.307,0,0,1-7.759-.468V326.635a58.8,58.8,0,0,1,7.485-.469c10.776,0,16.418,6.933,16.418,14.3C281.843,348.185,276.475,355.316,265.7,355.316Zm0-26.487a29.026,29.026,0,0,0-4.623.314V352.3a27.254,27.254,0,0,0,5.015.314c8.464,0,12.343-5.328,12.343-12.146C278.433,333.806,274.044,328.829,265.7,328.829Z" transform="translate(-257.94 -325.812)" fill="#fff"/><path d="M289.957,355.685c-7.757,0-14.184-6.192-14.184-14.813a14.539,14.539,0,0,1,14.458-14.852c7.759,0,14.186,6.232,14.186,14.852A14.505,14.505,0,0,1,289.957,355.685Zm.157-26.843c-6.387,0-10.933,5.251-10.933,12.029s4.546,12.029,10.933,12.029c6.349,0,10.893-5.249,10.893-12.029S296.463,328.842,290.114,328.842Z" transform="translate(-242.065 -325.942)" fill="#fff"/><path d="M311.358,355.685c-8.857,0-15.244-6.192-15.244-14.813,0-8.463,6.544-14.852,15.244-14.852a18.464,18.464,0,0,1,9.481,2.743l-1.293,2.665a18.214,18.214,0,0,0-8.464-2.469c-7.249,0-11.559,5.134-11.559,11.912s4.584,11.872,11.835,11.872a18.249,18.249,0,0,0,8.464-2.469l1.017,2.666A18.467,18.467,0,0,1,311.358,355.685Z" transform="translate(-223.958 -325.942)" fill="#fff"/><path d="M324.93,355.463c-6.582,0-10.776-3.881-10.776-10.778V326.269h3.136v18.182c0,5.759,3.134,8.19,7.64,8.19,4.466,0,7.719-2.47,7.719-8.19V326.269h3.136v18.416C335.785,351.348,331.357,355.463,324.93,355.463Z" transform="translate(-207.899 -325.721)" fill="#fff"/><path d="M356.27,355.248l-.431-20.3-10.188,17.359h-.431l-10.266-17.4-.353,20.337h-3.174l1.1-29.192.588-.078,12.462,21.629,12.146-21.629.628.078,1.1,29.192Z" transform="translate(-192.522 -325.979)" fill="#fff"/><path d="M352.267,354.99V326.269h16.809v2.82H355.4V339h12.3v2.82H355.4V352.17h13.675v2.82Z" transform="translate(-173.971 -325.721)" fill="#fff"/><path d="M388.858,355.8l-18.652-22.336v21.786h-3.134V326.134l.626-.155,18.418,21.981V326.527h3.134v29.152Z" transform="translate(-160.792 -325.979)" fill="#fff"/><path d="M396.623,329.089v25.9h-3.134v-25.9h-9.6v-2.82h22.295v2.82Z" transform="translate(-145.821 -325.721)" fill="#fff"/><path d="M420.787,355.23l-3.408-7.952H404.528l-3.41,7.952h-3.253L410.756,326h.51l12.891,29.23Zm-9.835-22.922-5.289,12.343h10.579Z" transform="translate(-133.38 -325.96)" fill="#fff"/><path d="M432.412,355.082l-7.642-11.322c-.626.038-1.253.078-1.919.078-.941,0-2.312-.04-3.253-.078v11.322h-3.134V326.635a50.221,50.221,0,0,1,6.621-.469c7.406,0,11.052,3.682,11.052,8.619,0,4-2.234,7.014-6.27,8.307l8.345,11.989Zm-8.854-26.1a20.331,20.331,0,0,0-3.96.314v11.676a31.8,31.8,0,0,0,3.487.2c5.368,0,7.682-2.467,7.682-6.19C430.768,331.612,428.26,328.986,423.559,328.986Z" transform="translate(-116.823 -325.812)" fill="#fff"/><path d="M443,342.256V354.99h-3.134V342.218L429.8,326.269h3.527l8.23,13.322,8.109-13.322h3.452Z" transform="translate(-104.954 -325.721)" fill="#fff"/><path d="M459.579,330.737v8.383h11.089v4.351H459.579V354.99h-4.9V326.269H472.2v4.468Z" transform="translate(-82.803 -325.721)" fill="#fff"/><path d="M469.2,354.99V326.269h4.9V354.99Z" transform="translate(-69.881 -325.721)" fill="#fff"/><path d="M478.112,354.99V326.269h4.9v24.255h12.615v4.466Z" transform="translate(-61.945 -325.721)" fill="#fff"/><path d="M516.4,355.193l-.391-17.2-9.052,13.715h-.588l-9.13-13.755-.314,17.24h-4.82l1.215-29.073.745-.08L506.8,345.085l12.423-19.044.784.08,1.214,29.073Z" transform="translate(-49.486 -325.924)" fill="#fff"/><path d="M521.4,355.685a16.93,16.93,0,0,1-9.014-2.822l1.686-4.391a13.29,13.29,0,0,0,7.485,2.665c3.016,0,4.347-1.763,4.347-3.762s-.862-3.251-5.406-5.172c-5.016-2.115-6.818-4.7-6.818-8.15,0-4.153,3.448-8.034,9.441-8.034a13.628,13.628,0,0,1,7.211,2.077l-1.567,4.311a11.121,11.121,0,0,0-5.76-2.039c-3.018,0-4.429,1.646-4.429,3.567s1.41,3.054,4.977,4.623c5.682,2.469,7.326,4.78,7.326,8.542C530.884,351.727,527.32,355.685,521.4,355.685Z" transform="translate(-31.432 -325.942)" fill="#fff"/></g></svg>